<svg width="16" height="16" viewBox="0 0 16 16" fill="none" xmlns="http://www.w3.org/2000/svg">
<path fill-rule="evenodd" clip-rule="evenodd" d="M13.2678 2.73223C12.2915 1.75592 10.7085 1.75592 9.73223 2.73223L6.73223 5.73223C5.75592 6.70854 5.75592 8.29146 6.73223 9.26777C6.93948 9.47501 7.17318 9.63769 7.42202 9.75656C7.67119 9.87559 7.77669 10.1741 7.65766 10.4232C7.53863 10.6724 7.24014 10.7779 6.99097 10.6589C6.64113 10.4918 6.31375 10.2635 6.02513 9.97487C4.65829 8.60804 4.65829 6.39196 6.02513 5.02513L9.02513 2.02513C10.392 0.658291 12.608 0.658291 13.9749 2.02513C15.3417 3.39196 15.3417 5.60804 13.9749 6.97487L12.8036 8.14619C12.6083 8.34145 12.2917 8.34145 12.0965 8.14619C11.9012 7.95093 11.9012 7.63434 12.0965 7.43908L13.2678 6.26777C14.2441 5.29146 14.2441 3.70854 13.2678 2.73223ZM8.34234 5.57676C8.46137 5.32759 8.75986 5.22208 9.00903 5.34112C9.35888 5.50824 9.68625 5.7365 9.97487 6.02513C11.3417 7.39196 11.3417 9.60804 9.97487 10.9749L6.97487 13.9749C5.60804 15.3417 3.39196 15.3417 2.02513 13.9749C0.658291 12.608 0.658291 10.392 2.02513 9.02513L3.19644 7.85381C3.3917 7.65855 3.70828 7.65855 3.90355 7.85381C4.09881 8.04907 4.09881 8.36566 3.90355 8.56092L2.73223 9.73223C1.75592 10.7085 1.75592 12.2915 2.73223 13.2678C3.70854 14.2441 5.29146 14.2441 6.26777 13.2678L9.26777 10.2678C10.2441 9.29146 10.2441 7.70854 9.26777 6.73223C9.06052 6.52499 8.82682 6.36232 8.57798 6.24344C8.32881 6.12441 8.22331 5.82593 8.34234 5.57676Z" fill="#5B5B69"/>
</svg>
