<?xml version="1.0" encoding="utf-8"?>
<!-- Generator: Adobe Illustrator 26.0.1, SVG Export Plug-In . SVG Version: 6.00 Build 0)  -->
<svg version="1.1" id="Layer_1" xmlns="http://www.w3.org/2000/svg" xmlns:xlink="http://www.w3.org/1999/xlink" x="0px" y="0px"
	 viewBox="0 0 137 148" style="enable-background:new 0 0 137 148;" xml:space="preserve">
<style type="text/css">
	.st0{fill:#EAD66D;}
	.st1{fill:url(#SVGID_1_);}
	.st2{fill-rule:evenodd;clip-rule:evenodd;fill:#2E2E35;}
</style>
<circle class="st0" cx="70" cy="71" r="66"/>
<radialGradient id="SVGID_1_" cx="70" cy="71" r="58.05" gradientUnits="userSpaceOnUse">
	<stop  offset="0" style="stop-color:#2E2E35"/>
	<stop  offset="0.9944" style="stop-color:#2E2E35"/>
</radialGradient>
<circle class="st1" cx="70" cy="71" r="58.1"/>
<g>
	<path shape-rendering="crispEdges" class="st0" d="M8.8,31.7l9.5,14.5l68.4,0.9L72.1,31.7H8.8z"/>
</g>
<g>
	<path class="st0" d="M30.3,31.7H8.8l60,104V99.8L30.3,31.7z"/>
</g>
<g>
	<path class="st0" d="M107.3,31.7h21.5l-60,104l-11-19.2L107.3,31.7z"/>
</g>
<path class="st2" d="M131.7,28c0.4-0.1,0.9,0,1.3,0.2c1,0.6,1.3,1.8,0.7,2.7L71,140c-0.1,0.2-0.2,0.3-0.3,0.4
	c-0.2,0.2-0.4,0.3-0.6,0.4c-0.3,0.1-0.5,0.2-0.8,0.2s-0.6-0.1-0.8-0.2c-0.2-0.1-0.4-0.2-0.6-0.4c-0.1-0.1-0.2-0.3-0.3-0.4L4.3,31
	c-0.6-1-0.2-2.2,0.7-2.7C5.3,28.1,5.7,28,6.1,28c0.1,0,0.1,0,0.2,0h125C131.4,28,131.5,28,131.7,28z M128.5,32H9.5l59.8,103
	L128.5,32z"/>
</svg>
