<svg width="270" height="230" viewBox="0 0 270 230" fill="none" xmlns="http://www.w3.org/2000/svg">
<g opacity="0.6">
<path opacity="0.4" d="M266.9 196.348C265.545 185.385 258.795 174.583 248.408 171.015C252.504 182.299 252.503 194.678 248.405 205.962C246.809 210.307 244.584 214.974 246.086 219.354C247.02 222.079 249.305 224.164 251.859 225.468C254.414 226.772 257.249 227.393 260.049 228.002L260.6 228.461C265.044 218.359 268.254 207.311 266.9 196.348Z" fill="#04E474" fill-opacity="0.5"/>
<path d="M248.299 171.223C254.348 178.045 258.108 186.612 259.044 195.708C259.28 197.662 259.208 199.642 258.832 201.574C258.405 203.444 257.488 205.165 256.177 206.558C254.98 207.881 253.604 209.096 252.748 210.689C252.321 211.511 252.073 212.414 252.017 213.34C251.962 214.266 252.102 215.193 252.428 216.06C253.184 218.243 254.674 220.022 256.191 221.71C257.876 223.585 259.655 225.506 260.371 227.992C260.458 228.293 260.917 228.14 260.831 227.839C259.585 223.514 255.414 221.058 253.425 217.162C252.497 215.345 252.107 213.235 252.977 211.316C253.738 209.638 255.156 208.385 256.38 207.055C257.679 205.716 258.632 204.076 259.156 202.28C259.629 200.373 259.776 198.399 259.591 196.443C259.245 192.032 258.211 187.704 256.529 183.616C254.634 178.94 251.959 174.625 248.619 170.857C248.412 170.624 248.093 170.991 248.299 171.223Z" fill="#5B5B69"/>
<path d="M258.916 192.761C260.411 192.396 261.728 191.507 262.632 190.255C263.536 189.002 263.968 187.467 263.852 185.923C263.827 185.611 263.344 185.635 263.369 185.948C263.48 187.385 263.077 188.815 262.233 189.98C261.388 191.144 260.158 191.967 258.764 192.299C258.461 192.371 258.615 192.833 258.916 192.761Z" fill="#5B5B69"/>
<path d="M256.872 205.967C254.172 204.345 252.18 201.758 251.291 198.722C251.203 198.421 250.744 198.574 250.831 198.874C251.762 202.032 253.842 204.72 256.655 206.402C256.923 206.562 257.139 206.127 256.872 205.967Z" fill="#5B5B69"/>
<path d="M254.19 179.402C253.64 179.664 253.035 179.785 252.428 179.754C251.821 179.723 251.231 179.541 250.711 179.224C250.445 179.061 250.229 179.496 250.493 179.659C251.069 180.006 251.721 180.207 252.392 180.243C253.063 180.278 253.732 180.148 254.341 179.864C254.401 179.842 254.45 179.798 254.479 179.741C254.507 179.684 254.513 179.618 254.495 179.556C254.475 179.495 254.431 179.445 254.374 179.416C254.317 179.387 254.25 179.382 254.19 179.402Z" fill="#5B5B69"/>
<path opacity="0.4" d="M216.738 190.596C216.902 190.703 217.065 190.81 217.228 190.921C219.416 192.369 221.483 193.993 223.409 195.778C223.56 195.914 223.711 196.054 223.858 196.193C228.454 200.543 232.206 205.714 234.926 211.443C236.006 213.724 236.913 216.084 237.637 218.503C238.637 221.844 239.458 225.547 241.438 228.28C241.642 228.567 241.862 228.841 242.1 229.101H259.994C260.034 229.081 260.075 229.064 260.116 229.044L260.83 229.077C260.802 228.949 260.769 228.818 260.741 228.69C260.724 228.616 260.704 228.542 260.688 228.469C260.675 228.419 260.663 228.37 260.655 228.325C260.651 228.308 260.647 228.292 260.643 228.28C260.635 228.234 260.622 228.193 260.614 228.152C260.434 227.417 260.249 226.681 260.059 225.945C260.059 225.941 260.059 225.941 260.055 225.937C258.589 220.336 256.646 214.809 253.931 209.754C253.849 209.602 253.768 209.446 253.678 209.294C252.441 207.023 251.023 204.857 249.436 202.818C248.563 201.704 247.635 200.636 246.656 199.616C244.119 196.988 241.187 194.778 237.968 193.066C231.55 189.655 224.12 188.349 217.261 190.432C217.085 190.485 216.914 190.539 216.738 190.596Z" fill="#04E474" fill-opacity="0.5"/>
<path d="M216.782 190.825C225.693 192.607 233.819 197.169 240.007 203.864C241.365 205.281 242.492 206.905 243.347 208.676C244.125 210.428 244.422 212.357 244.208 214.264C244.044 216.046 243.672 217.85 243.941 219.641C244.092 220.556 244.434 221.428 244.944 222.2C245.454 222.973 246.12 223.628 246.899 224.123C248.808 225.408 251.062 225.925 253.283 226.354C255.75 226.83 258.319 227.285 260.378 228.836C260.627 229.024 260.902 228.623 260.653 228.436C257.072 225.738 252.272 226.304 248.354 224.399C246.526 223.51 244.952 222.062 244.5 220.002C244.103 218.202 244.486 216.342 244.668 214.539C244.903 212.682 244.684 210.795 244.028 209.043C243.265 207.234 242.202 205.569 240.884 204.119C237.969 200.807 234.555 197.978 230.767 195.734C226.457 193.148 221.74 191.324 216.819 190.34C216.515 190.279 216.48 190.765 216.782 190.825Z" fill="#5B5B69"/>
<path d="M238.143 201.59C239.118 200.392 239.638 198.885 239.611 197.337C239.584 195.789 239.011 194.301 237.994 193.139C237.788 192.904 237.416 193.216 237.623 193.451C238.572 194.531 239.105 195.917 239.128 197.359C239.15 198.801 238.66 200.203 237.745 201.312C237.547 201.554 237.946 201.83 238.143 201.59Z" fill="#5B5B69"/>
<path d="M244.412 213.372C241.286 213.712 238.147 212.854 235.622 210.969C235.372 210.782 235.097 211.182 235.346 211.369C237.978 213.326 241.246 214.212 244.499 213.851C244.809 213.816 244.721 213.337 244.412 213.372Z" fill="#5B5B69"/>
<path d="M226.376 193.788C226.095 194.331 225.684 194.795 225.18 195.138C224.677 195.481 224.097 195.693 223.492 195.755C223.182 195.785 223.27 196.264 223.579 196.234C224.246 196.162 224.887 195.927 225.444 195.55C226.001 195.172 226.457 194.662 226.774 194.066C226.808 194.012 226.821 193.947 226.81 193.884C226.798 193.821 226.763 193.765 226.712 193.727C226.66 193.691 226.595 193.676 226.532 193.688C226.469 193.7 226.413 193.736 226.376 193.788Z" fill="#5B5B69"/>
<path d="M100.862 0H0V33.6207H100.862V0Z" fill="#F0BE6C"/>
<path d="M11.4806 5.33008H6.56055V10.2502H11.4806V5.33008Z" fill="#E6E6E6"/>
<path d="M95.1217 5.33008H15.5801V10.2502H95.1217V5.33008Z" fill="#E6E6E6"/>
<path d="M11.4806 14.3501H6.56055V19.2702H11.4806V14.3501Z" fill="#E6E6E6"/>
<path d="M95.1217 14.3501H15.5801V19.2702H95.1217V14.3501Z" fill="#E6E6E6"/>
<path d="M11.4806 23.3706H6.56055V28.2907H11.4806V23.3706Z" fill="#E6E6E6"/>
<path d="M95.1217 22.9604H15.5801V27.8805H95.1217V22.9604Z" fill="#E6E6E6"/>
<path d="M100.862 53.3008H0V86.9215H100.862V53.3008Z" fill="#F0BE6C"/>
<path d="M11.4806 58.6309H6.56055V63.551H11.4806V58.6309Z" fill="#E6E6E6"/>
<path d="M95.1217 58.6309H15.5801V63.551H95.1217V58.6309Z" fill="#E6E6E6"/>
<path d="M11.4806 67.6509H6.56055V72.571H11.4806V67.6509Z" fill="#E6E6E6"/>
<path d="M95.1217 67.6509H15.5801V72.571H95.1217V67.6509Z" fill="#E6E6E6"/>
<path d="M11.4806 76.6714H6.56055V81.5915H11.4806V76.6714Z" fill="#E6E6E6"/>
<path d="M95.1217 76.2612H15.5801V81.1813H95.1217V76.2612Z" fill="#E6E6E6"/>
<path d="M100.862 106.602H0V140.223H100.862V106.602Z" fill="#F0BE6C"/>
<path d="M11.4806 111.932H6.56055V116.852H11.4806V111.932Z" fill="#E6E6E6"/>
<path d="M95.1217 111.932H15.5801V116.852H95.1217V111.932Z" fill="#E6E6E6"/>
<path d="M11.4806 120.952H6.56055V125.872H11.4806V120.952Z" fill="#E6E6E6"/>
<path d="M95.1217 120.952H15.5801V125.872H95.1217V120.952Z" fill="#E6E6E6"/>
<path d="M11.4806 129.973H6.56055V134.893H11.4806V129.973Z" fill="#E6E6E6"/>
<path d="M95.1217 129.562H15.5801V134.483H95.1217V129.562Z" fill="#E6E6E6"/>
<path d="M100.862 159.903H0V193.524H100.862V159.903Z" fill="#F0BE6C"/>
<path d="M11.4806 165.233H6.56055V170.153H11.4806V165.233Z" fill="#E6E6E6"/>
<path d="M95.1217 165.233H15.5801V170.153H95.1217V165.233Z" fill="#E6E6E6"/>
<path d="M11.4806 174.253H6.56055V179.174H11.4806V174.253Z" fill="#E6E6E6"/>
<path d="M95.1217 174.253H15.5801V179.174H95.1217V174.253Z" fill="#E6E6E6"/>
<path d="M11.4806 183.274H6.56055V188.194H11.4806V183.274Z" fill="#E6E6E6"/>
<path d="M95.1217 182.864H15.5801V187.784H95.1217V182.864Z" fill="#E6E6E6"/>
<path d="M212.686 103.638C212.482 103.469 212.316 103.258 212.2 103.02C212.084 102.781 212.021 102.52 212.014 102.254L211.786 92.9756C211.555 91.6362 211.861 90.2593 212.637 89.1465C213.413 88.0338 214.595 87.2761 215.925 87.0394C217.255 86.8027 218.624 87.1064 219.732 87.884C220.839 88.6615 221.596 89.8494 221.835 91.1874L224.737 100.029C224.82 100.281 224.848 100.548 224.819 100.812C224.79 101.076 224.704 101.331 224.569 101.559C224.433 101.787 224.25 101.983 224.032 102.133C223.815 102.284 223.567 102.385 223.307 102.431L214.165 104.03C213.905 104.075 213.638 104.064 213.383 103.996C213.128 103.929 212.89 103.806 212.686 103.638Z" fill="#E4E4E4"/>
<path d="M211.58 224.048L206.583 224.325L203.143 205.054L210.519 204.646L211.58 224.048Z" fill="#FF3838" fill-opacity="0.4"/>
<path d="M213.125 228.854L197.011 229.747L197 229.542C196.908 227.867 197.481 226.225 198.593 224.976C199.704 223.726 201.263 222.973 202.926 222.88L212.769 222.335L213.125 228.854Z" fill="#5B5B69"/>
<path d="M106.803 146.541L106.156 141.545L124.993 136.657L125.947 144.03L106.803 146.541Z" fill="#FF3838" fill-opacity="0.4"/>
<path d="M102.158 148.446L100.072 132.338L100.275 132.311C101.927 132.095 103.597 132.547 104.917 133.57C106.237 134.592 107.1 136.101 107.316 137.764L108.589 147.603L102.158 148.446Z" fill="#5B5B69"/>
<path d="M169.983 114.967C170.201 115.026 170.414 115.102 170.621 115.195L187.749 104.327L187.566 99.3796L194.948 98.1255L196.117 106.852C196.212 107.557 196.077 108.274 195.732 108.895C195.387 109.516 194.852 110.008 194.206 110.297L173.152 119.703C173.039 120.572 172.665 121.385 172.081 122.035C171.498 122.685 170.731 123.14 169.884 123.341C169.037 123.541 168.149 123.478 167.339 123.158C166.529 122.838 165.834 122.278 165.348 121.552C164.862 120.825 164.607 119.967 164.617 119.091C164.628 118.215 164.903 117.363 165.406 116.648C165.909 115.933 166.616 115.39 167.434 115.089C168.251 114.789 169.14 114.746 169.983 114.967Z" fill="#FF3838" fill-opacity="0.4"/>
<path d="M201.207 77.995C208.072 77.995 213.638 72.3928 213.638 65.4821C213.638 58.5714 208.072 52.9692 201.207 52.9692C194.341 52.9692 188.775 58.5714 188.775 65.4821C188.775 72.3928 194.341 77.995 201.207 77.995Z" fill="#5B5B69"/>
<path d="M205.556 57.4903C208.397 57.4903 210.7 55.1721 210.7 52.3125C210.7 49.4529 208.397 47.1348 205.556 47.1348C202.715 47.1348 200.412 49.4529 200.412 52.3125C200.412 55.1721 202.715 57.4903 205.556 57.4903Z" fill="#5B5B69"/>
<path d="M212.415 49.5078C212.415 48.228 211.944 46.9935 211.093 46.0425C210.242 45.0916 209.071 44.4915 207.807 44.3581C207.985 44.3395 208.164 44.3301 208.342 44.3301C209.707 44.3301 211.015 44.8756 211.98 45.8466C212.945 46.8176 213.486 48.1346 213.486 49.5078C213.486 50.8811 212.945 52.198 211.98 53.169C211.015 54.1401 209.707 54.6856 208.342 54.6856C208.164 54.6855 207.985 54.6762 207.807 54.6576C209.071 54.5241 210.242 53.9241 211.093 52.9731C211.944 52.0221 212.415 50.7877 212.415 49.5078Z" fill="#5B5B69"/>
<path d="M201.202 79.0871C205.544 79.0871 209.063 75.5447 209.063 71.1749C209.063 66.8051 205.544 63.2627 201.202 63.2627C196.861 63.2627 193.342 66.8051 193.342 71.1749C193.342 75.5447 196.861 79.0871 201.202 79.0871Z" fill="#FFB8B8"/>
<path d="M214.288 125.773C214.288 125.773 213.913 135.192 212.416 140.09C210.919 144.988 213.539 214.315 212.229 216.01C210.919 217.706 204.743 217.14 204.743 217.14L199.013 181.022C199.013 181.022 198.005 142.728 184.155 141.786C170.306 140.844 116.217 146.119 116.217 146.119L115.094 138.395L144.103 131.99C144.103 131.99 170.68 122.759 185.278 125.208C199.877 127.657 214.288 125.773 214.288 125.773Z" fill="#5B5B69"/>
<path d="M212.602 80.1835C214.1 79.0532 217.843 80.5603 217.843 80.5603L221.96 92.8054C221.96 92.8054 219.902 103.355 218.03 109.195C216.158 115.035 212.553 140.852 213.302 141.983C214.05 143.113 201.186 133.874 193.512 131.048C185.839 128.222 184.154 125.02 184.154 125.02C184.154 125.02 192.576 112.963 189.769 107.311C186.962 101.66 189.208 95.2545 189.208 95.2545L188.085 88.8493L194.448 85.27C194.448 85.27 211.105 81.3139 212.602 80.1835Z" fill="#D9D9D9"/>
<path d="M199.759 68.0069C204.494 68.0069 208.332 65.6887 208.332 62.8291C208.332 59.9695 204.494 57.6514 199.759 57.6514C195.024 57.6514 191.186 59.9695 191.186 62.8291C191.186 65.6887 195.024 68.0069 199.759 68.0069Z" fill="#5B5B69"/>
<path d="M249.029 83.4784C248.936 83.6856 248.86 83.8998 248.8 84.1191L229.594 90.5693L225.907 87.2914L220.266 92.2446L226.231 98.6858C226.713 99.2062 227.35 99.5552 228.046 99.6803C228.741 99.8055 229.459 99.7001 230.09 99.38L250.661 88.9474C251.4 89.4095 252.262 89.6342 253.131 89.5914C254 89.5487 254.836 89.2406 255.527 88.7081C256.218 88.1756 256.732 87.444 257 86.6105C257.267 85.7771 257.277 84.8813 257.027 84.0423C256.776 83.2033 256.278 82.4609 255.598 81.9139C254.919 81.3668 254.09 81.041 253.222 80.9798C252.353 80.9186 251.487 81.1248 250.738 81.5712C249.99 82.0175 249.394 82.6827 249.029 83.4784Z" fill="#FF3838" fill-opacity="0.4"/>
<path d="M228.921 90.9242L221.899 97.0291C221.699 97.2028 221.464 97.3311 221.211 97.4053C220.957 97.4795 220.691 97.4978 220.43 97.459C220.169 97.4203 219.919 97.3253 219.697 97.1805C219.476 97.0358 219.288 96.8447 219.147 96.6203L214.191 88.7577C213.314 87.7238 212.88 86.3818 212.984 85.0261C213.088 83.6704 213.722 82.4116 214.747 81.5258C215.772 80.6401 217.104 80.1996 218.451 80.3009C219.798 80.4023 221.051 81.0373 221.933 82.0666L228.92 88.124C229.12 88.2975 229.28 88.5124 229.39 88.7539C229.5 88.9955 229.557 89.2581 229.557 89.5238C229.557 89.7895 229.501 90.0522 229.391 90.2938C229.281 90.5355 229.121 90.7505 228.921 90.9242Z" fill="#D9D9D9"/>
<path d="M269.778 230H100.611C100.552 229.999 100.495 229.946 100.454 229.853C100.412 229.759 100.389 229.632 100.389 229.5C100.389 229.367 100.412 229.24 100.454 229.146C100.495 229.053 100.552 229 100.611 229H269.778C269.837 229 269.894 229.052 269.936 229.146C269.977 229.24 270.001 229.367 270.001 229.5C270.001 229.632 269.977 229.759 269.936 229.853C269.894 229.947 269.837 230 269.778 230Z" fill="#5B5B69"/>
</g>
</svg>
