<svg width="417" height="474" viewBox="0 0 417 474" fill="none" xmlns="http://www.w3.org/2000/svg">
<rect x="45.0035" y="248.053" width="22.5812" height="65.6665" transform="rotate(29.4902 45.0035 248.053)" fill="#E9F8FF" stroke="black"/>
<rect x="16.4824" y="297.23" width="22.5812" height="34.3718" fill="#E9F8FF" stroke="black"/>
<path d="M7.66055 332.462C19.1926 321.329 37.1698 321.329 48.7019 332.462C51.6409 335.3 53.4503 339.387 54.4127 343.965C55.3742 348.538 55.4814 353.562 55.0497 358.222C54.6178 362.884 53.6492 367.155 52.4769 370.221C51.8895 371.757 51.2607 372.966 50.6402 373.767C49.9987 374.596 49.4686 374.864 49.0887 374.833C42.9398 374.346 39.6841 372.89 37.9207 371.083C36.1663 369.286 35.7987 367.052 35.6593 364.74C35.6356 364.347 35.6183 363.945 35.601 363.542C35.5687 362.789 35.5363 362.034 35.4614 361.329C35.3448 360.231 35.1195 359.162 34.593 358.23C33.5059 356.307 31.27 355.182 26.8722 355.182C24.6695 355.182 23.0584 355.493 21.9028 356.081C20.7253 356.68 20.047 357.553 19.703 358.596C19.367 359.614 19.3573 360.77 19.4516 361.94C19.507 362.627 19.6039 363.365 19.7003 364.099C19.7652 364.594 19.8299 365.086 19.8816 365.561C20.1486 368.013 20.1083 370.258 18.5695 371.922C17.0167 373.602 13.8057 374.832 7.31326 374.832C6.63415 374.832 5.91049 374.452 5.17099 373.622C4.4343 372.796 3.7315 371.577 3.10417 370.038C1.85111 366.963 0.94011 362.713 0.622745 358.08C0.30557 353.45 0.58335 348.465 1.68722 343.922C2.79204 339.375 4.71526 335.306 7.66055 332.462Z" fill="#6D6D6D" stroke="black"/>
<mask id="path-4-inside-1_903_56178" fill="white">
<path d="M99.2111 236.876C97.2184 231.547 93.7264 226.909 89.1564 223.521C84.5863 220.133 79.1335 218.14 73.4559 217.783C67.7783 217.425 62.1185 218.718 57.1593 221.505C52.2001 224.292 48.1535 228.455 45.5076 233.491C42.8618 238.528 41.7298 244.222 42.2482 249.887C42.7666 255.552 44.9133 260.946 48.4293 265.419C51.9453 269.891 56.6803 273.25 62.063 275.091C67.4457 276.932 73.2462 277.176 78.7646 275.794L71.6021 247.201L99.2111 236.876Z"/>
</mask>
<path d="M99.2111 236.876C97.2184 231.547 93.7264 226.909 89.1564 223.521C84.5863 220.133 79.1335 218.14 73.4559 217.783C67.7783 217.425 62.1185 218.718 57.1593 221.505C52.2001 224.292 48.1535 228.455 45.5076 233.491C42.8618 238.528 41.7298 244.222 42.2482 249.887C42.7666 255.552 44.9133 260.946 48.4293 265.419C51.9453 269.891 56.6803 273.25 62.063 275.091C67.4457 276.932 73.2462 277.176 78.7646 275.794L71.6021 247.201L99.2111 236.876Z" fill="#6D6D6D" stroke="black" stroke-width="2" mask="url(#path-4-inside-1_903_56178)"/>
<circle cx="27.7719" cy="298.695" r="17.1859" fill="#6D6D6D" stroke="black"/>
<circle cx="27.7733" cy="298.695" r="13.2557" fill="#222222" stroke="black"/>
<rect x="-0.189082" y="0.681357" width="22.5812" height="65.6665" transform="matrix(-0.87044 0.492275 0.492275 0.87044 370.856 247.553)" fill="#E9F8FF" stroke="black"/>
<rect x="-0.5" y="0.5" width="22.5812" height="34.3718" transform="matrix(-1 0 0 1 399.377 296.73)" fill="#E9F8FF" stroke="black"/>
<path d="M408.697 332.462C397.165 321.329 379.188 321.329 367.656 332.462C364.717 335.3 362.907 339.387 361.945 343.965C360.983 348.538 360.876 353.562 361.308 358.222C361.74 362.884 362.708 367.155 363.881 370.221C364.468 371.757 365.097 372.966 365.717 373.767C366.359 374.596 366.889 374.864 367.269 374.833C373.418 374.346 376.673 372.89 378.437 371.083C380.191 369.286 380.559 367.052 380.698 364.74C380.722 364.347 380.739 363.945 380.756 363.542C380.789 362.789 380.821 362.034 380.896 361.329C381.013 360.231 381.238 359.162 381.764 358.23C382.852 356.307 385.087 355.182 389.485 355.182C391.688 355.182 393.299 355.493 394.455 356.081C395.632 356.68 396.31 357.553 396.654 358.596C396.99 359.614 397 360.77 396.906 361.94C396.85 362.627 396.754 363.365 396.657 364.099C396.592 364.594 396.527 365.086 396.476 365.561C396.209 368.013 396.249 370.258 397.788 371.922C399.341 373.602 402.552 374.832 409.044 374.832C409.723 374.832 410.447 374.452 411.186 373.622C411.923 372.796 412.626 371.577 413.253 370.038C414.506 366.963 415.417 362.713 415.735 358.08C416.052 353.45 415.774 348.465 414.67 343.922C413.565 339.375 411.642 335.306 408.697 332.462Z" fill="#6D6D6D" stroke="black"/>
<mask id="path-10-inside-2_903_56178" fill="white">
<path d="M317.148 236.876C319.141 231.547 322.633 226.909 327.203 223.521C331.773 220.133 337.226 218.14 342.903 217.782C348.581 217.425 354.241 218.718 359.2 221.505C364.159 224.292 368.206 228.455 370.852 233.491C373.498 238.527 374.63 244.222 374.111 249.887C373.593 255.552 371.446 260.946 367.93 265.418C364.414 269.891 359.679 273.25 354.296 275.091C348.914 276.932 343.113 277.176 337.595 275.794L344.757 247.201L317.148 236.876Z"/>
</mask>
<path d="M317.148 236.876C319.141 231.547 322.633 226.909 327.203 223.521C331.773 220.133 337.226 218.14 342.903 217.782C348.581 217.425 354.241 218.718 359.2 221.505C364.159 224.292 368.206 228.455 370.852 233.491C373.498 238.527 374.63 244.222 374.111 249.887C373.593 255.552 371.446 260.946 367.93 265.418C364.414 269.891 359.679 273.25 354.296 275.091C348.914 276.932 343.113 277.176 337.595 275.794L344.757 247.201L317.148 236.876Z" fill="#6D6D6D" stroke="black" stroke-width="2" mask="url(#path-10-inside-2_903_56178)"/>
<circle cx="17.6859" cy="17.6859" r="17.1859" transform="matrix(-1 0 0 1 406.271 281.009)" fill="#6D6D6D" stroke="black"/>
<circle cx="13.7557" cy="13.7557" r="13.2557" transform="matrix(-1 0 0 1 402.342 284.94)" fill="#222222" stroke="black"/>
<rect x="95.0879" y="81.0691" width="226.952" height="140.487" rx="3.5" fill="#6D6D6D" stroke="black"/>
<rect x="110.807" y="96.7899" width="197.475" height="109.046" rx="3.5" fill="#C0ECFF" stroke="black"/>
<rect x="161.9" y="222.557" width="101.185" height="14.7208" fill="#6D6D6D" stroke="black"/>
<rect x="236.572" y="222.557" width="26.5114" height="14.7208" fill="black" stroke="black"/>
<rect x="228.211" y="224.022" width="7.86041" height="11.7906" fill="#222222"/>
<rect x="118.666" y="377.8" width="77.6041" height="16.6859" fill="#5B899C" stroke="black"/>
<rect x="138.318" y="440.683" width="38.3021" height="8.82551" fill="white" stroke="black"/>
<path d="M128.516 462.897L138.086 448.543H176.852L186.422 462.897C187.086 463.894 186.372 465.229 185.174 465.229H129.764C128.566 465.229 127.852 463.894 128.516 462.897Z" fill="#6D6D6D" stroke="black"/>
<path d="M118.693 393.757C118.689 393.671 118.686 393.592 118.683 393.521H196.278C196.278 393.599 196.279 393.686 196.279 393.781C196.279 394.259 196.271 394.943 196.238 395.764C196.173 397.409 196.009 399.595 195.618 401.775C195.225 403.964 194.61 406.105 193.664 407.686C192.723 409.259 191.504 410.206 189.892 410.206H189.76H189.627H189.495H189.363H189.23H189.098H188.966H188.834H188.701H188.569H188.437H188.305H188.173H188.041H187.909H187.777H187.645H187.512H187.381H187.249H187.117H186.985H186.853H186.721H186.589H186.457H186.325H186.194H186.062H185.93H185.798H185.667H185.535H185.403H185.272H185.14H185.009H184.877H184.746H184.614H184.483H184.351H184.22H184.088H183.957H183.826H183.694H183.563H183.432H183.301H183.169H183.038H182.907H182.776H182.645H182.514H182.383H182.251H182.12H181.989H181.859H181.728H181.597H181.466H181.335H181.204H181.073H180.942H180.812H180.681H180.55H180.419H180.289H180.158H180.028H179.897H179.766H179.636H179.505H179.375H179.244H179.114H178.984H178.853H178.723H178.592H178.462H178.332H178.202H178.071H177.941H177.811H177.681H177.551H177.421H177.291H177.161H177.031H176.901H176.771H176.641H176.511H176.381H176.251H176.121H175.991H175.862H175.732H175.602H175.473H175.343H175.213H175.084H174.954H174.824H174.695H174.565H174.436H174.307H174.177H174.048H173.918H173.789H173.66H173.53H173.401H173.272H173.143H173.014H172.885H172.755H172.626H172.497H172.368H172.239H172.11H171.981H171.852H171.724H171.595H171.466H171.337H171.208H171.08H170.951H170.822H170.694H170.565H170.436H170.308H170.179H170.051H169.922H169.794H169.665H169.537H169.409H169.28H169.152H169.024H168.896H168.767H168.639H168.511H168.383H168.255H168.127H167.999H167.871H167.743H167.615H167.487H167.359H167.231H167.103H166.976H166.848H166.72H166.592H166.465H166.337H166.209H166.082H165.954H165.827H165.699H165.572H165.444H165.317H165.19H165.062H164.935H164.808H164.681H164.553H164.426H164.299H164.172H164.045H163.918H163.791H163.664H163.537H163.41H163.283H163.156H163.029H162.902H162.776H162.649H162.522H162.396H162.269H162.142H162.016H161.889H161.763H161.636H161.51H161.383H161.257H161.131H161.004H160.878H160.752H160.625H160.499H160.373H160.247H160.121H159.995H159.869H159.743H159.617H159.491H159.365H159.239H159.113H158.988H158.862H158.736H158.61H158.485H158.359H158.233H158.108H157.982H157.857H157.731H157.606H157.48H157.355H157.23H157.104H156.979H156.854H156.729H156.604H156.478H156.353H156.228H156.103H155.978H155.853H155.728H155.603H155.479H155.354H155.229H155.104H154.98H154.855H154.73H154.606H154.481H154.356H154.232H154.107H153.983H153.859H153.734H153.61H153.486H153.361H153.237H153.113H152.989H152.865H152.74H152.616H152.492H152.368H152.244H152.12H151.997H151.873H151.749H151.625H151.501H151.378H151.254H151.13H151.007H150.883H150.76H150.636H150.513H150.389H150.266H150.143H150.019H149.896H149.773H149.65H149.526H149.403H149.28H149.157H149.034H148.911H148.788H148.665H148.542H148.419H148.297H148.174H148.051H147.928H147.806H147.683H147.561H147.438H147.316H147.193H147.071H146.948H146.826H146.704H146.581H146.459H146.337H146.215H146.093H145.97H145.848H145.726H145.604H145.482H145.36H145.239H145.117H144.995H144.873H144.752H144.63H144.508H144.387H144.265H144.143H144.022H143.901H143.779H143.658H143.536H143.415H143.294H143.173H143.051H142.93H142.809H142.688H142.567H142.446H142.325H142.204H142.083H141.963H141.842H141.721H141.6H141.48H141.359H141.238H141.118H140.997H140.877H140.756H140.636H140.516H140.395H140.275H140.155H140.035H139.914H139.794H139.674H139.554H139.434H139.314H139.194H139.074H138.954H138.835H138.715H138.595H138.476H138.356H138.236H138.117H137.997H137.878H137.758H137.639H137.52H137.4H137.281H137.162H137.042H136.923H136.804H136.685H136.566H136.447H136.328H136.209H136.09H135.972H135.853H135.734H135.615H135.497H135.378H135.259H135.141H135.022H134.904H134.786H134.667H134.549H134.431H134.312H134.194H134.076H133.958H133.84H133.722H133.604H133.486H133.368H133.25H133.132H133.014H132.897H132.779H132.661H132.544H132.426H132.309H132.191H132.074H131.956H131.839H131.722H131.604H131.487H131.37H131.253H131.136H131.019H130.902H130.785H130.668H130.551H130.434H130.317H130.2H130.084H129.967H129.85H129.734H129.617H129.501H129.384H129.268H129.152H129.035H128.919H128.803H128.687H128.57H128.454H128.338H128.222H128.106H127.99H127.874H127.759H127.643H127.527H127.411H127.296H127.18H127.065H126.949H126.834H126.718H126.603H126.487H126.372H126.257H126.142H126.026C124.367 410.206 123.066 409.247 122.027 407.668C120.984 406.083 120.254 403.939 119.749 401.751C119.246 399.571 118.975 397.385 118.829 395.74C118.757 394.919 118.716 394.235 118.693 393.757Z" fill="#C0ECFF" stroke="black"/>
<path d="M126.549 409.482C126.546 409.395 126.543 409.314 126.541 409.241H188.41C188.41 409.32 188.411 409.406 188.411 409.501C188.411 409.98 188.404 410.666 188.378 411.489C188.326 413.136 188.195 415.327 187.881 417.513C187.566 419.708 187.072 421.859 186.312 423.448C185.543 425.055 184.586 425.927 183.402 425.927H183.296H183.19H183.085H182.979H182.873H182.767H182.661H182.555H182.45H182.344H182.238H182.132H182.027H181.921H181.815H181.71H181.604H181.499H181.393H181.287H181.182H181.076H180.971H180.865H180.76H180.654H180.549H180.444H180.338H180.233H180.127H180.022H179.917H179.812H179.706H179.601H179.496H179.391H179.285H179.18H179.075H178.97H178.865H178.76H178.655H178.549H178.444H178.339H178.234H178.129H178.024H177.92H177.815H177.71H177.605H177.5H177.395H177.29H177.185H177.081H176.976H176.871H176.766H176.662H176.557H176.452H176.348H176.243H176.138H176.034H175.929H175.825H175.72H175.616H175.511H175.407H175.302H175.198H175.094H174.989H174.885H174.78H174.676H174.572H174.468H174.363H174.259H174.155H174.051H173.947H173.842H173.738H173.634H173.53H173.426H173.322H173.218H173.114H173.01H172.906H172.802H172.698H172.594H172.49H172.387H172.283H172.179H172.075H171.971H171.868H171.764H171.66H171.557H171.453H171.349H171.246H171.142H171.039H170.935H170.831H170.728H170.624H170.521H170.418H170.314H170.211H170.107H170.004H169.901H169.797H169.694H169.591H169.488H169.385H169.281H169.178H169.075H168.972H168.869H168.766H168.663H168.56H168.457H168.354H168.251H168.148H168.045H167.942H167.839H167.736H167.634H167.531H167.428H167.325H167.223H167.12H167.017H166.914H166.812H166.709H166.607H166.504H166.402H166.299H166.197H166.094H165.992H165.889H165.787H165.685H165.582H165.48H165.378H165.275H165.173H165.071H164.969H164.866H164.764H164.662H164.56H164.458H164.356H164.254H164.152H164.05H163.948H163.846H163.744H163.642H163.54H163.439H163.337H163.235H163.133H163.032H162.93H162.828H162.726H162.625H162.523H162.422H162.32H162.219H162.117H162.016H161.914H161.813H161.711H161.61H161.509H161.407H161.306H161.205H161.103H161.002H160.901H160.8H160.699H160.597H160.496H160.395H160.294H160.193H160.092H159.991H159.89H159.789H159.689H159.588H159.487H159.386H159.285H159.184H159.084H158.983H158.882H158.782H158.681H158.58H158.48H158.379H158.279H158.178H158.078H157.977H157.877H157.777H157.676H157.576H157.476H157.375H157.275H157.175H157.075H156.974H156.874H156.774H156.674H156.574H156.474H156.374H156.274H156.174H156.074H155.974H155.874H155.774H155.675H155.575H155.475H155.375H155.276H155.176H155.076H154.977H154.877H154.777H154.678H154.578H154.479H154.379H154.28H154.181H154.081H153.982H153.882H153.783H153.684H153.585H153.485H153.386H153.287H153.188H153.089H152.99H152.891H152.792H152.693H152.594H152.495H152.396H152.297H152.198H152.099H152.001H151.902H151.803H151.705H151.606H151.507H151.409H151.31H151.211H151.113H151.014H150.916H150.818H150.719H150.621H150.522H150.424H150.326H150.228H150.129H150.031H149.933H149.835H149.737H149.639H149.541H149.442H149.344H149.247H149.149H149.051H148.953H148.855H148.757H148.659H148.562H148.464H148.366H148.268H148.171H148.073H147.976H147.878H147.781H147.683H147.586H147.488H147.391H147.293H147.196H147.099H147.002H146.904H146.807H146.71H146.613H146.516H146.419H146.321H146.224H146.127H146.03H145.934H145.837H145.74H145.643H145.546H145.449H145.353H145.256H145.159H145.063H144.966H144.869H144.773H144.676H144.58H144.483H144.387H144.29H144.194H144.098H144.001H143.905H143.809H143.713H143.616H143.52H143.424H143.328H143.232H143.136H143.04H142.944H142.848H142.752H142.656H142.561H142.465H142.369H142.273H142.178H142.082H141.986H141.891H141.795H141.699H141.604H141.508H141.413H141.318H141.222H141.127H141.032H140.936H140.841H140.746H140.651H140.555H140.46H140.365H140.27H140.175H140.08H139.985H139.89H139.795H139.701H139.606H139.511H139.416H139.322H139.227H139.132H139.038H138.943H138.848H138.754H138.659H138.565H138.471H138.376H138.282H138.188H138.093H137.999H137.905H137.811H137.716H137.622H137.528H137.434H137.34H137.246H137.152H137.058H136.964H136.871H136.777H136.683H136.589H136.496H136.402H136.308H136.215H136.121H136.028H135.934H135.841H135.747H135.654H135.56H135.467H135.374H135.281H135.187H135.094H135.001H134.908H134.815H134.722H134.629H134.536H134.443H134.35H134.257H134.164H134.071H133.979H133.886H133.793H133.701H133.608H133.515H133.423H133.33H133.238H133.145H133.053H132.961H132.868H132.776H132.684H132.591H132.499H132.407H132.315C131.09 425.927 130.071 425.038 129.224 423.431C128.387 421.84 127.801 419.688 127.396 417.494C126.992 415.308 126.775 413.117 126.658 411.47C126.6 410.647 126.567 409.961 126.549 409.482Z" fill="#5B899C" stroke="black"/>
<path d="M134.403 425.208C134.401 425.119 134.398 425.037 134.397 424.962H180.549C180.549 425.04 180.549 425.127 180.549 425.222C180.549 425.702 180.544 426.389 180.525 427.214C180.485 428.864 180.387 431.06 180.151 433.252C179.914 435.451 179.542 437.615 178.968 439.216C178.68 440.018 178.353 440.644 177.993 441.062C177.639 441.472 177.286 441.648 176.918 441.648H176.838H176.759H176.68H176.6H176.521H176.441H176.362H176.283H176.203H176.124H176.045H175.966H175.886H175.807H175.728H175.649H175.569H175.49H175.411H175.332H175.253H175.173H175.094H175.015H174.936H174.857H174.778H174.699H174.62H174.541H174.462H174.383H174.304H174.225H174.146H174.067H173.988H173.909H173.83H173.751H173.672H173.594H173.515H173.436H173.357H173.278H173.2H173.121H173.042H172.963H172.885H172.806H172.727H172.648H172.57H172.491H172.413H172.334H172.255H172.177H172.098H172.02H171.941H171.862H171.784H171.705H171.627H171.549H171.47H171.392H171.313H171.235H171.156H171.078H171H170.921H170.843H170.765H170.686H170.608H170.53H170.452H170.373H170.295H170.217H170.139H170.061H169.982H169.904H169.826H169.748H169.67H169.592H169.514H169.436H169.358H169.28H169.202H169.124H169.046H168.968H168.89H168.812H168.734H168.656H168.578H168.5H168.423H168.345H168.267H168.189H168.111H168.034H167.956H167.878H167.8H167.723H167.645H167.567H167.49H167.412H167.335H167.257H167.179H167.102H167.024H166.947H166.869H166.792H166.714H166.637H166.559H166.482H166.405H166.327H166.25H166.172H166.095H166.018H165.941H165.863H165.786H165.709H165.631H165.554H165.477H165.4H165.323H165.246H165.168H165.091H165.014H164.937H164.86H164.783H164.706H164.629H164.552H164.475H164.398H164.321H164.244H164.167H164.091H164.014H163.937H163.86H163.783H163.706H163.63H163.553H163.476H163.399H163.323H163.246H163.169H163.093H163.016H162.939H162.863H162.786H162.71H162.633H162.557H162.48H162.404H162.327H162.251H162.174H162.098H162.022H161.945H161.869H161.792H161.716H161.64H161.564H161.487H161.411H161.335H161.259H161.182H161.106H161.03H160.954H160.878H160.802H160.726H160.65H160.574H160.498H160.422H160.346H160.27H160.194H160.118H160.042H159.966H159.89H159.814H159.739H159.663H159.587H159.511H159.435H159.36H159.284H159.208H159.133H159.057H158.981H158.906H158.83H158.755H158.679H158.603H158.528H158.452H158.377H158.302H158.226H158.151H158.075H158H157.925H157.849H157.774H157.699H157.623H157.548H157.473H157.398H157.322H157.247H157.172H157.097H157.022H156.947H156.872H156.797H156.722H156.647H156.572H156.497H156.422H156.347H156.272H156.197H156.122H156.047H155.972H155.898H155.823H155.748H155.673H155.599H155.524H155.449H155.375H155.3H155.225H155.151H155.076H155.002H154.927H154.853H154.778H154.704H154.629H154.555H154.48H154.406H154.332H154.257H154.183H154.109H154.034H153.96H153.886H153.812H153.737H153.663H153.589H153.515H153.441H153.367H153.293H153.219H153.145H153.071H152.997H152.923H152.849H152.775H152.701H152.627H152.553H152.479H152.406H152.332H152.258H152.184H152.111H152.037H151.963H151.89H151.816H151.742H151.669H151.595H151.522H151.448H151.375H151.301H151.228H151.154H151.081H151.007H150.934H150.861H150.787H150.714H150.641H150.568H150.494H150.421H150.348H150.275H150.202H150.129H150.055H149.982H149.909H149.836H149.763H149.69H149.617H149.544H149.472H149.399H149.326H149.253H149.18H149.107H149.035H148.962H148.889H148.816H148.744H148.671H148.598H148.526H148.453H148.381H148.308H148.236H148.163H148.091H148.018H147.946H147.873H147.801H147.729H147.656H147.584H147.512H147.439H147.367H147.295H147.223H147.151H147.079H147.006H146.934H146.862H146.79H146.718H146.646H146.574H146.502H146.43H146.358H146.287H146.215H146.143H146.071H145.999H145.928H145.856H145.784H145.712H145.641H145.569H145.498H145.426H145.354H145.283H145.211H145.14H145.068H144.997H144.926H144.854H144.783H144.711H144.64H144.569H144.498H144.426H144.355H144.284H144.213H144.142H144.071H143.999H143.928H143.857H143.786H143.715H143.644H143.573H143.503H143.432H143.361H143.29H143.219H143.148H143.078H143.007H142.936H142.865H142.795H142.724H142.654H142.583H142.512H142.442H142.371H142.301H142.23H142.16H142.09H142.019H141.949H141.878H141.808H141.738H141.668H141.597H141.527H141.457H141.387H141.317H141.247H141.177H141.107H141.037H140.967H140.897H140.827H140.757H140.687H140.617H140.547H140.477H140.408H140.338H140.268H140.198H140.129H140.059H139.989H139.92H139.85H139.781H139.711H139.642H139.572H139.503H139.433H139.364H139.295H139.225H139.156H139.087H139.017H138.948H138.879H138.81H138.741H138.672H138.602C138.218 441.648 137.844 441.466 137.468 441.052C137.087 440.632 136.734 440.003 136.418 439.201C135.785 437.599 135.344 435.436 135.039 433.237C134.736 431.045 134.573 428.849 134.485 427.199C134.442 426.375 134.417 425.688 134.403 425.208Z" fill="#C0ECFF" stroke="black"/>
<rect x="212.992" y="377.8" width="77.6041" height="16.6859" fill="#5B899C" stroke="black"/>
<rect x="232.645" y="440.683" width="38.3021" height="8.82551" fill="white" stroke="black"/>
<path d="M222.842 462.897L232.412 448.543H271.179L280.748 462.897C281.412 463.894 280.698 465.229 279.5 465.229H224.091C222.893 465.229 222.178 463.894 222.842 462.897Z" fill="#6D6D6D" stroke="black"/>
<path d="M213.019 393.757C213.015 393.671 213.012 393.592 213.009 393.521H290.604C290.604 393.599 290.605 393.686 290.605 393.781C290.605 394.259 290.597 394.943 290.564 395.764C290.499 397.409 290.335 399.595 289.944 401.775C289.552 403.964 288.937 406.105 287.99 407.686C287.049 409.259 285.83 410.206 284.218 410.206H284.086H283.954H283.821H283.689H283.557H283.424H283.292H283.16H283.028H282.895H282.763H282.631H282.499H282.367H282.235H282.103H281.971H281.839H281.707H281.575H281.443H281.311H281.179H281.047H280.915H280.783H280.652H280.52H280.388H280.256H280.125H279.993H279.861H279.73H279.598H279.466H279.335H279.203H279.072H278.94H278.809H278.677H278.546H278.415H278.283H278.152H278.021H277.889H277.758H277.627H277.496H277.364H277.233H277.102H276.971H276.84H276.709H276.578H276.447H276.316H276.185H276.054H275.923H275.792H275.661H275.53H275.399H275.269H275.138H275.007H274.876H274.746H274.615H274.484H274.354H274.223H274.093H273.962H273.832H273.701H273.571H273.44H273.31H273.179H273.049H272.919H272.788H272.658H272.528H272.398H272.267H272.137H272.007H271.877H271.747H271.617H271.487H271.357H271.227H271.097H270.967H270.837H270.707H270.577H270.447H270.318H270.188H270.058H269.928H269.799H269.669H269.539H269.41H269.28H269.151H269.021H268.892H268.762H268.633H268.503H268.374H268.245H268.115H267.986H267.857H267.727H267.598H267.469H267.34H267.211H267.082H266.953H266.823H266.694H266.565H266.437H266.308H266.179H266.05H265.921H265.792H265.663H265.535H265.406H265.277H265.148H265.02H264.891H264.763H264.634H264.505H264.377H264.249H264.12H263.992H263.863H263.735H263.607H263.478H263.35H263.222H263.094H262.965H262.837H262.709H262.581H262.453H262.325H262.197H262.069H261.941H261.813H261.685H261.557H261.43H261.302H261.174H261.046H260.919H260.791H260.663H260.536H260.408H260.281H260.153H260.026H259.898H259.771H259.643H259.516H259.389H259.261H259.134H259.007H258.88H258.752H258.625H258.498H258.371H258.244H258.117H257.99H257.863H257.736H257.609H257.482H257.355H257.229H257.102H256.975H256.848H256.722H256.595H256.469H256.342H256.215H256.089H255.962H255.836H255.71H255.583H255.457H255.33H255.204H255.078H254.952H254.825H254.699H254.573H254.447H254.321H254.195H254.069H253.943H253.817H253.691H253.565H253.439H253.314H253.188H253.062H252.936H252.811H252.685H252.56H252.434H252.308H252.183H252.057H251.932H251.807H251.681H251.556H251.431H251.305H251.18H251.055H250.93H250.805H250.68H250.554H250.429H250.304H250.179H250.055H249.93H249.805H249.68H249.555H249.43H249.306H249.181H249.056H248.932H248.807H248.683H248.558H248.434H248.309H248.185H248.06H247.936H247.812H247.687H247.563H247.439H247.315H247.191H247.067H246.943H246.819H246.695H246.571H246.447H246.323H246.199H246.075H245.951H245.828H245.704H245.58H245.457H245.333H245.209H245.086H244.962H244.839H244.715H244.592H244.469H244.345H244.222H244.099H243.976H243.853H243.729H243.606H243.483H243.36H243.237H243.114H242.991H242.868H242.746H242.623H242.5H242.377H242.255H242.132H242.009H241.887H241.764H241.642H241.519H241.397H241.274H241.152H241.03H240.907H240.785H240.663H240.541H240.419H240.297H240.175H240.053H239.931H239.809H239.687H239.565H239.443H239.321H239.199H239.078H238.956H238.834H238.713H238.591H238.47H238.348H238.227H238.105H237.984H237.863H237.741H237.62H237.499H237.378H237.256H237.135H237.014H236.893H236.772H236.651H236.53H236.41H236.289H236.168H236.047H235.926H235.806H235.685H235.565H235.444H235.323H235.203H235.083H234.962H234.842H234.721H234.601H234.481H234.361H234.241H234.12H234H233.88H233.76H233.64H233.52H233.401H233.281H233.161H233.041H232.921H232.802H232.682H232.562H232.443H232.323H232.204H232.084H231.965H231.846H231.726H231.607H231.488H231.369H231.249H231.13H231.011H230.892H230.773H230.654H230.535H230.417H230.298H230.179H230.06H229.941H229.823H229.704H229.586H229.467H229.349H229.23H229.112H228.993H228.875H228.757H228.638H228.52H228.402H228.284H228.166H228.048H227.93H227.812H227.694H227.576H227.458H227.341H227.223H227.105H226.987H226.87H226.752H226.635H226.517H226.4H226.282H226.165H226.048H225.93H225.813H225.696H225.579H225.462H225.345H225.228H225.111H224.994H224.877H224.76H224.643H224.527H224.41H224.293H224.177H224.06H223.943H223.827H223.71H223.594H223.478H223.361H223.245H223.129H223.013H222.897H222.78H222.664H222.548H222.432H222.316H222.201H222.085H221.969H221.853H221.738H221.622H221.506H221.391H221.275H221.16H221.044H220.929H220.814H220.698H220.583H220.468H220.353C218.693 410.206 217.393 409.247 216.353 407.668C215.31 406.083 214.58 403.939 214.075 401.751C213.572 399.571 213.301 397.385 213.156 395.74C213.083 394.919 213.042 394.235 213.019 393.757Z" fill="#C0ECFF" stroke="black"/>
<path d="M220.875 409.482C220.872 409.395 220.869 409.314 220.867 409.241H282.736C282.737 409.319 282.737 409.406 282.737 409.501C282.737 409.98 282.73 410.666 282.704 411.489C282.652 413.136 282.521 415.327 282.207 417.513C281.892 419.708 281.399 421.859 280.638 423.448C279.869 425.055 278.912 425.927 277.728 425.927H277.622H277.517H277.411H277.305H277.199H277.093H276.987H276.882H276.776H276.67H276.564H276.459H276.353H276.247H276.142H276.036H275.93H275.825H275.719H275.614H275.508H275.403H275.297H275.192H275.086H274.981H274.875H274.77H274.664H274.559H274.454H274.348H274.243H274.138H274.032H273.927H273.822H273.717H273.612H273.506H273.401H273.296H273.191H273.086H272.981H272.876H272.771H272.666H272.561H272.456H272.351H272.246H272.141H272.036H271.931H271.826H271.721H271.616H271.512H271.407H271.302H271.197H271.093H270.988H270.883H270.779H270.674H270.569H270.465H270.36H270.255H270.151H270.046H269.942H269.837H269.733H269.629H269.524H269.42H269.315H269.211H269.107H269.002H268.898H268.794H268.69H268.585H268.481H268.377H268.273H268.169H268.064H267.96H267.856H267.752H267.648H267.544H267.44H267.336H267.232H267.128H267.024H266.92H266.817H266.713H266.609H266.505H266.401H266.298H266.194H266.09H265.986H265.883H265.779H265.675H265.572H265.468H265.365H265.261H265.158H265.054H264.951H264.847H264.744H264.64H264.537H264.434H264.33H264.227H264.124H264.02H263.917H263.814H263.711H263.608H263.504H263.401H263.298H263.195H263.092H262.989H262.886H262.783H262.68H262.577H262.474H262.371H262.268H262.165H262.063H261.96H261.857H261.754H261.651H261.549H261.446H261.343H261.241H261.138H261.035H260.933H260.83H260.728H260.625H260.523H260.42H260.318H260.215H260.113H260.011H259.908H259.806H259.704H259.601H259.499H259.397H259.295H259.193H259.09H258.988H258.886H258.784H258.682H258.58H258.478H258.376H258.274H258.172H258.07H257.968H257.867H257.765H257.663H257.561H257.459H257.358H257.256H257.154H257.053H256.951H256.849H256.748H256.646H256.545H256.443H256.342H256.24H256.139H256.037H255.936H255.835H255.733H255.632H255.531H255.43H255.328H255.227H255.126H255.025H254.924H254.823H254.721H254.62H254.519H254.418H254.317H254.217H254.116H254.015H253.914H253.813H253.712H253.611H253.511H253.41H253.309H253.209H253.108H253.007H252.907H252.806H252.705H252.605H252.504H252.404H252.304H252.203H252.103H252.002H251.902H251.802H251.701H251.601H251.501H251.401H251.301H251.2H251.1H251H250.9H250.8H250.7H250.6H250.5H250.4H250.3H250.2H250.101H250.001H249.901H249.801H249.701H249.602H249.502H249.402H249.303H249.203H249.104H249.004H248.904H248.805H248.706H248.606H248.507H248.407H248.308H248.209H248.109H248.01H247.911H247.812H247.712H247.613H247.514H247.415H247.316H247.217H247.118H247.019H246.92H246.821H246.722H246.623H246.524H246.426H246.327H246.228H246.129H246.031H245.932H245.833H245.735H245.636H245.538H245.439H245.341H245.242H245.144H245.045H244.947H244.849H244.75H244.652H244.554H244.455H244.357H244.259H244.161H244.063H243.965H243.867H243.769H243.671H243.573H243.475H243.377H243.279H243.181H243.083H242.986H242.888H242.79H242.692H242.595H242.497H242.399H242.302H242.204H242.107H242.009H241.912H241.814H241.717H241.62H241.522H241.425H241.328H241.23H241.133H241.036H240.939H240.842H240.745H240.648H240.551H240.454H240.357H240.26H240.163H240.066H239.969H239.872H239.776H239.679H239.582H239.485H239.389H239.292H239.195H239.099H239.002H238.906H238.809H238.713H238.617H238.52H238.424H238.328H238.231H238.135H238.039H237.943H237.846H237.75H237.654H237.558H237.462H237.366H237.27H237.174H237.078H236.983H236.887H236.791H236.695H236.599H236.504H236.408H236.312H236.217H236.121H236.026H235.93H235.835H235.739H235.644H235.548H235.453H235.358H235.262H235.167H235.072H234.977H234.882H234.787H234.691H234.596H234.501H234.406H234.311H234.217H234.122H234.027H233.932H233.837H233.742H233.648H233.553H233.458H233.364H233.269H233.175H233.08H232.986H232.891H232.797H232.702H232.608H232.514H232.419H232.325H232.231H232.137H232.043H231.948H231.854H231.76H231.666H231.572H231.478H231.385H231.291H231.197H231.103H231.009H230.915H230.822H230.728H230.634H230.541H230.447H230.354H230.26H230.167H230.073H229.98H229.887H229.793H229.7H229.607H229.514H229.42H229.327H229.234H229.141H229.048H228.955H228.862H228.769H228.676H228.583H228.49H228.398H228.305H228.212H228.119H228.027H227.934H227.842H227.749H227.656H227.564H227.472H227.379H227.287H227.194H227.102H227.01H226.918H226.825H226.733H226.641C225.416 425.927 224.397 425.038 223.551 423.431C222.713 421.84 222.127 419.687 221.722 417.493C221.318 415.307 221.101 413.117 220.985 411.469C220.926 410.647 220.894 409.961 220.875 409.482Z" fill="#5B899C" stroke="black"/>
<path d="M228.729 425.208C228.727 425.119 228.725 425.036 228.723 424.962H274.875C274.875 425.04 274.875 425.127 274.875 425.222C274.875 425.702 274.871 426.389 274.851 427.214C274.812 428.864 274.713 431.06 274.477 433.251C274.241 435.451 273.869 437.614 273.294 439.216C273.006 440.018 272.679 440.644 272.319 441.062C271.966 441.472 271.612 441.648 271.244 441.648H271.165H271.085H271.006H270.926H270.847H270.768H270.688H270.609H270.53H270.45H270.371H270.292H270.212H270.133H270.054H269.975H269.896H269.816H269.737H269.658H269.579H269.5H269.421H269.341H269.262H269.183H269.104H269.025H268.946H268.867H268.788H268.709H268.63H268.551H268.472H268.393H268.314H268.235H268.156H268.078H267.999H267.92H267.841H267.762H267.683H267.604H267.526H267.447H267.368H267.289H267.211H267.132H267.053H266.975H266.896H266.817H266.739H266.66H266.581H266.503H266.424H266.346H266.267H266.189H266.11H266.032H265.953H265.875H265.796H265.718H265.639H265.561H265.483H265.404H265.326H265.247H265.169H265.091H265.013H264.934H264.856H264.778H264.699H264.621H264.543H264.465H264.387H264.309H264.23H264.152H264.074H263.996H263.918H263.84H263.762H263.684H263.606H263.528H263.45H263.372H263.294H263.216H263.138H263.06H262.982H262.904H262.827H262.749H262.671H262.593H262.515H262.438H262.36H262.282H262.204H262.127H262.049H261.971H261.894H261.816H261.738H261.661H261.583H261.506H261.428H261.35H261.273H261.195H261.118H261.04H260.963H260.886H260.808H260.731H260.653H260.576H260.499H260.421H260.344H260.267H260.189H260.112H260.035H259.958H259.88H259.803H259.726H259.649H259.572H259.495H259.418H259.34H259.263H259.186H259.109H259.032H258.955H258.878H258.801H258.724H258.647H258.57H258.494H258.417H258.34H258.263H258.186H258.109H258.033H257.956H257.879H257.802H257.726H257.649H257.572H257.495H257.419H257.342H257.266H257.189H257.112H257.036H256.959H256.883H256.806H256.73H256.653H256.577H256.5H256.424H256.348H256.271H256.195H256.119H256.042H255.966H255.89H255.813H255.737H255.661H255.585H255.509H255.432H255.356H255.28H255.204H255.128H255.052H254.976H254.9H254.824H254.748H254.672H254.596H254.52H254.444H254.368H254.292H254.216H254.141H254.065H253.989H253.913H253.837H253.762H253.686H253.61H253.534H253.459H253.383H253.308H253.232H253.156H253.081H253.005H252.93H252.854H252.779H252.703H252.628H252.552H252.477H252.401H252.326H252.251H252.175H252.1H252.025H251.95H251.874H251.799H251.724H251.649H251.573H251.498H251.423H251.348H251.273H251.198H251.123H251.048H250.973H250.898H250.823H250.748H250.673H250.598H250.523H250.448H250.373H250.299H250.224H250.149H250.074H250H249.925H249.85H249.775H249.701H249.626H249.552H249.477H249.402H249.328H249.253H249.179H249.104H249.03H248.955H248.881H248.806H248.732H248.658H248.583H248.509H248.435H248.36H248.286H248.212H248.138H248.064H247.989H247.915H247.841H247.767H247.693H247.619H247.545H247.471H247.397H247.323H247.249H247.175H247.101H247.027H246.953H246.879H246.806H246.732H246.658H246.584H246.51H246.437H246.363H246.289H246.216H246.142H246.068H245.995H245.921H245.848H245.774H245.701H245.627H245.554H245.48H245.407H245.334H245.26H245.187H245.114H245.04H244.967H244.894H244.821H244.747H244.674H244.601H244.528H244.455H244.382H244.309H244.236H244.162H244.089H244.017H243.944H243.871H243.798H243.725H243.652H243.579H243.506H243.433H243.361H243.288H243.215H243.143H243.07H242.997H242.925H242.852H242.779H242.707H242.634H242.562H242.489H242.417H242.344H242.272H242.2H242.127H242.055H241.982H241.91H241.838H241.766H241.693H241.621H241.549H241.477H241.405H241.333H241.261H241.188H241.116H241.044H240.972H240.9H240.828H240.757H240.685H240.613H240.541H240.469H240.397H240.326H240.254H240.182H240.11H240.039H239.967H239.895H239.824H239.752H239.681H239.609H239.538H239.466H239.395H239.323H239.252H239.18H239.109H239.038H238.966H238.895H238.824H238.753H238.681H238.61H238.539H238.468H238.397H238.326H238.255H238.184H238.113H238.042H237.971H237.9H237.829H237.758H237.687H237.616H237.545H237.475H237.404H237.333H237.262H237.192H237.121H237.05H236.98H236.909H236.839H236.768H236.698H236.627H236.557H236.486H236.416H236.345H236.275H236.205H236.134H236.064H235.994H235.924H235.853H235.783H235.713H235.643H235.573H235.503H235.433H235.363H235.293H235.223H235.153H235.083H235.013H234.943H234.873H234.803H234.734H234.664H234.594H234.525H234.455H234.385H234.316H234.246H234.176H234.107H234.037H233.968H233.898H233.829H233.76H233.69H233.621H233.551H233.482H233.413H233.344H233.274H233.205H233.136H233.067H232.998H232.929C232.544 441.648 232.17 441.466 231.794 441.052C231.413 440.632 231.061 440.003 230.744 439.201C230.111 437.599 229.67 435.436 229.366 433.236C229.062 431.045 228.899 428.849 228.811 427.199C228.768 426.375 228.743 425.688 228.729 425.208Z" fill="#C0ECFF" stroke="black"/>
<path d="M64.6974 240.562C64.2189 238.378 65.8812 236.312 68.1162 236.312H348.771C351.071 236.312 352.746 238.493 352.152 240.715L315.97 376.168C315.561 377.699 314.174 378.765 312.588 378.765H97.8044C96.1602 378.765 94.7376 377.62 94.3856 376.014L64.6974 240.562Z" fill="#6D6D6D" stroke="black"/>
<path d="M103.939 258.213C103.486 256.039 105.145 253.998 107.365 253.998H309.533C311.815 253.998 313.487 256.148 312.925 258.36L286.995 360.406C286.601 361.958 285.204 363.044 283.603 363.044H128.641C126.984 363.044 125.553 361.881 125.215 360.258L103.939 258.213Z" fill="#E9F8FF" stroke="black"/>
<path d="M175.308 254.863C175.407 254.494 175.485 254.204 175.54 253.998C182.67 253.993 286.652 253.997 310.035 253.998C312.184 253.998 313.766 255.927 313.407 258.075L296.361 360.121C296.077 361.817 294.668 363.044 292.966 363.044H292.864H292.761H292.657H292.551H292.443H292.335H292.224H292.113H292H291.885H291.769H291.652H291.534H291.414H291.292H291.17H291.046H290.92H290.793H290.665H290.535H290.405H290.272H290.139H290.004H289.868H289.73H289.591H289.451H289.309H289.167H289.022H288.877H288.73H288.582H288.433H288.282H288.13H287.977H287.823H287.667H287.51H287.352H287.192H287.032H286.87H286.706H286.542H286.376H286.209H286.041H285.872H285.701H285.529H285.356H285.182H285.006H284.83H284.652H284.473H284.293H284.111H283.929H283.745H283.56H283.374H283.187H282.999H282.809H282.618H282.427H282.234H282.04H281.844H281.648H281.451H281.252H281.052H280.852H280.65H280.447H280.243H280.037H279.831H279.624H279.415H279.206H278.995H278.784H278.571H278.357H278.143H277.927H277.71H277.492H277.273H277.053H276.832H276.61H276.387H276.163H275.938H275.712H275.484H275.256H275.027H274.797H274.566H274.334H274.101H273.867H273.632H273.396H273.159H272.922H272.683H272.443H272.202H271.961H271.718H271.475H271.23H270.985H270.739H270.492H270.244H269.995H269.745H269.494H269.243H268.99H268.737H268.482H268.227H267.971H267.714H267.457H267.198H266.938H266.678H266.417H266.155H265.892H265.628H265.364H265.099H264.832H264.566H264.298H264.029H263.76H263.49H263.219H262.947H262.674H262.401H262.127H261.852H261.577H261.3H261.023H260.745H260.466H260.187H259.907H259.626H259.344H259.062H258.779H258.495H258.211H257.925H257.639H257.353H257.065H256.777H256.489H256.199H255.909H255.618H255.327H255.035H254.742H254.448H254.154H253.86H253.564H253.268H252.971H252.674H252.376H252.077H251.778H251.478H251.178H250.877H250.575H250.273H249.97H249.666H249.362H249.058H248.753H248.447H248.14H247.833H247.526H247.218H246.909H246.6H246.29H245.98H245.669H245.358H245.046H244.734H244.421H244.107H243.793H243.479H243.164H242.848H242.532H242.216H241.899H241.581H241.264H240.945H240.626H240.307H239.987H239.667H239.346H239.025H238.703H238.381H238.059H237.736H237.413H237.089H236.765H236.44H236.115H235.79H235.464H235.138H234.811H234.484H234.157H233.829H233.501H233.172H232.843H232.514H232.184H231.854H231.524H231.193H230.862H230.531H230.199H229.867H229.535H229.202H228.869H228.536H228.202H227.868H227.534H227.2H226.865H226.53H226.194H225.859H225.523H225.186H224.85H224.513H224.176H223.839H223.501H223.164H222.826H222.487H222.149H221.81H221.471H221.132H220.793H220.453H220.113H219.773H219.433H219.093H218.752H218.411H218.07H217.729H217.388H217.046H216.705H216.363H216.021H215.679H215.337H214.994H214.652H214.309H213.966H213.623H213.28H212.937H212.594H212.25H211.907H211.563H211.219H210.876H210.532H210.188H209.844H209.5H209.155H208.811H208.467H208.122H207.778H207.433H207.089H206.744H206.399H206.055H205.71H205.365H205.021H204.676H204.331H203.986H203.641H203.297H202.952H202.607H202.262H201.917H201.573H201.228H200.883H200.539H200.194H199.85H199.505H199.161H198.816H198.472H198.127H197.783H197.439H197.095H196.751H196.407H196.063H195.719H195.376H195.032H194.689H194.346H194.002H193.659H193.316H192.973H192.631H192.288H191.946H191.603H191.261H190.919H190.577H190.236H189.894H189.553H189.212H188.871H188.53H188.189H187.849H187.509H187.169H186.829H186.489H186.15H185.811H185.472H185.133H184.794H184.456H184.118H183.78H183.443H183.105H182.768H182.431H182.095H181.759H181.423H181.087H180.751H180.416H180.081H179.747H179.413H179.079H178.745H178.411H178.078H177.746H177.413H177.081H176.749H176.418H176.087H175.756H175.426H175.096H174.766H174.437H174.108H173.779H173.451H173.123H172.796H172.468H172.142H171.815H171.49H171.164H170.839H170.514H170.19H169.866H169.543H169.22H168.897H168.575H168.253H167.932H167.611H167.291H166.971H166.652H166.333H166.014H165.696H165.379H165.062H164.745H164.429H164.114H163.798H163.484H163.17H162.856H162.543H162.231H161.919H161.607H161.296H160.986H160.676H160.367H160.058H159.75H159.442H159.135H158.829H158.523H158.218H157.913H157.609H157.305H157.002H156.7H156.398H156.097H155.796H155.496H155.197H154.898H154.6H154.303H154.006H153.71H153.414H153.119H152.825H152.531H152.238H151.946H151.655H151.364H151.073H150.784H150.495H150.207H149.919H149.633H149.346H149.061H148.776H148.493H148.209H148.056C148.065 362.877 148.088 362.655 148.125 362.374C148.231 361.586 148.444 360.418 148.752 358.916C149.368 355.916 150.356 351.624 151.599 346.467C154.085 336.154 157.584 322.402 161.145 308.647C164.706 294.892 168.329 281.137 171.062 270.821C172.429 265.663 173.573 261.365 174.375 258.356C174.776 256.851 175.092 255.669 175.308 254.863Z" fill="#C0ECFF" stroke="black"/>
<path d="M321.072 128.232H336.223C338.156 128.232 339.723 129.799 339.723 131.732V170.894C339.723 172.827 338.156 174.394 336.223 174.394H321.072V128.232Z" fill="#E2A752" stroke="black"/>
<path d="M96.0508 128.232H80.8998C78.9668 128.232 77.3998 129.799 77.3998 131.732V170.894C77.3998 172.827 78.9668 174.394 80.8998 174.394H96.0508V128.232Z" fill="#E2A752" stroke="black"/>
<path d="M188.412 112.511H169.331C167.398 112.511 165.831 114.078 165.831 116.011V155.173C165.831 157.106 167.398 158.673 169.331 158.673H188.412V112.511Z" fill="black" stroke="black"/>
<path d="M176.621 112.511H169.33C167.397 112.511 165.83 114.078 165.83 116.011V137.057H176.621V112.511Z" fill="white" stroke="black"/>
<path d="M126.027 167.034L126.027 119.871" stroke="#E9F8FF" stroke-width="2" stroke-linecap="round"/>
<path d="M251.793 353.719H283.235" stroke="#E9F8FF" stroke-width="2" stroke-linecap="round"/>
<path d="M196.772 98.255H236.074L220.353 204.371H181.051L196.772 98.255Z" fill="#E6F7FF"/>
<path d="M243.932 98.2552H291.094L275.373 204.371H228.211L243.932 98.2552Z" fill="#E6F7FF"/>
<path d="M253.262 112.511H234.18C232.247 112.511 230.68 114.078 230.68 116.011V155.173C230.68 157.106 232.247 158.673 234.18 158.673H253.262V112.511Z" fill="black" stroke="black"/>
<path d="M241.471 112.511H234.18C232.247 112.511 230.68 114.078 230.68 116.011V137.057H241.471V112.511Z" fill="white" stroke="black"/>
<path d="M220.354 189.132C220.077 189.132 219.854 189.356 219.854 189.632C219.854 189.908 220.077 190.132 220.354 190.132V189.132ZM280.57 189.632C280.57 191.105 281.764 192.299 283.237 192.299C284.71 192.299 285.903 191.105 285.903 189.632C285.903 188.16 284.71 186.966 283.237 186.966C281.764 186.966 280.57 188.16 280.57 189.632ZM220.354 190.132H283.237V189.132H220.354V190.132Z" fill="black"/>
<path d="M243.934 88.4297L291.096 88.4297" stroke="black" stroke-width="1.5" stroke-linecap="round"/>
<path d="M126.027 88.4296L173.19 88.4296" stroke="#6F5454" stroke-width="1.5" stroke-linecap="round"/>
<path d="M330.398 137.557L330.398 167.034" stroke="#E9F8FF" stroke-width="1.5" stroke-linecap="round"/>
<path d="M86.7246 137.557L86.7246 167.034" stroke="#E9F8FF" stroke-width="1.5" stroke-linecap="round"/>
<path d="M145.678 276.184L175.202 343.456C175.915 345.08 178.232 345.041 178.891 343.395L206.704 273.862C207.375 272.185 209.747 272.185 210.418 273.862L238.244 343.427C238.901 345.069 241.209 345.113 241.928 343.497L271.444 277.179" stroke="#B8A15F" stroke-width="8" stroke-linecap="round"/>
<mask id="path-49-inside-3_903_56178" fill="white">
<path fill-rule="evenodd" clip-rule="evenodd" d="M204.629 31.4417C213.311 31.4417 220.35 24.4033 220.35 15.7209C220.35 7.03851 213.311 6.10352e-05 204.629 6.10352e-05C195.947 6.10352e-05 188.908 7.03851 188.908 15.7209C188.908 23.9048 195.162 30.6281 203.151 31.3731C203.134 31.496 203.162 31.6253 203.24 31.7339L210.96 42.4551C211.43 43.1088 211.301 44.0176 210.666 44.5136L197.505 54.7955C196.714 55.4138 196.369 56.4457 196.63 57.4155L203.163 81.6818C203.235 81.9485 203.51 82.1065 203.776 82.0347C204.043 81.9629 204.201 81.6885 204.129 81.4219L197.596 57.1555C197.439 56.5736 197.646 55.9545 198.121 55.5835L211.281 45.3016C212.34 44.475 212.556 42.9604 211.771 41.8708L204.259 31.4374C204.382 31.4403 204.505 31.4417 204.629 31.4417Z"/>
</mask>
<path fill-rule="evenodd" clip-rule="evenodd" d="M204.629 31.4417C213.311 31.4417 220.35 24.4033 220.35 15.7209C220.35 7.03851 213.311 6.10352e-05 204.629 6.10352e-05C195.947 6.10352e-05 188.908 7.03851 188.908 15.7209C188.908 23.9048 195.162 30.6281 203.151 31.3731C203.134 31.496 203.162 31.6253 203.24 31.7339L210.96 42.4551C211.43 43.1088 211.301 44.0176 210.666 44.5136L197.505 54.7955C196.714 55.4138 196.369 56.4457 196.63 57.4155L203.163 81.6818C203.235 81.9485 203.51 82.1065 203.776 82.0347C204.043 81.9629 204.201 81.6885 204.129 81.4219L197.596 57.1555C197.439 56.5736 197.646 55.9545 198.121 55.5835L211.281 45.3016C212.34 44.475 212.556 42.9604 211.771 41.8708L204.259 31.4374C204.382 31.4403 204.505 31.4417 204.629 31.4417Z" fill="#F7B661"/>
<path d="M203.151 31.3731L204.141 31.5105L204.285 30.4746L203.244 30.3774L203.151 31.3731ZM203.24 31.7339L204.052 31.1496L204.052 31.1496L203.24 31.7339ZM210.96 42.4551L210.148 43.0394L210.148 43.0394L210.96 42.4551ZM210.666 44.5136L211.281 45.3016H211.281L210.666 44.5136ZM197.505 54.7955L198.121 55.5835L198.121 55.5835L197.505 54.7955ZM196.63 57.4155L197.596 57.1555L196.63 57.4155ZM203.163 81.6818L202.198 81.9418L202.198 81.9418L203.163 81.6818ZM203.776 82.0347L204.036 83.0003L204.036 83.0003L203.776 82.0347ZM204.129 81.4219L203.163 81.6818L204.129 81.4219ZM197.596 57.1555L198.561 56.8955L198.561 56.8955L197.596 57.1555ZM198.121 55.5835L198.736 56.3715L198.736 56.3715L198.121 55.5835ZM211.281 45.3016L210.666 44.5136L210.666 44.5136L211.281 45.3016ZM211.771 41.8708L210.96 42.4551L210.96 42.4551L211.771 41.8708ZM204.259 31.4374L204.282 30.4377L202.274 30.3913L203.448 32.0217L204.259 31.4374ZM219.35 15.7209C219.35 23.851 212.759 30.4417 204.629 30.4417V32.4417C213.864 32.4417 221.35 24.9555 221.35 15.7209H219.35ZM204.629 1.00006C212.759 1.00006 219.35 7.5908 219.35 15.7209H221.35C221.35 6.48623 213.864 -0.999939 204.629 -0.999939V1.00006ZM189.908 15.7209C189.908 7.5908 196.499 1.00006 204.629 1.00006V-0.999939C195.394 -0.999939 187.908 6.48623 187.908 15.7209H189.908ZM203.244 30.3774C195.764 29.6799 189.908 23.3836 189.908 15.7209H187.908C187.908 24.4259 194.56 31.5763 203.058 32.3688L203.244 30.3774ZM204.052 31.1496C204.13 31.2578 204.158 31.3889 204.141 31.5105L202.16 31.2358C202.109 31.603 202.195 31.9928 202.429 32.3182L204.052 31.1496ZM211.771 41.8708L204.052 31.1496L202.429 32.3182L210.148 43.0394L211.771 41.8708ZM211.281 45.3016C212.34 44.475 212.556 42.9604 211.771 41.8708L210.148 43.0394C210.305 43.2573 210.262 43.5602 210.05 43.7256L211.281 45.3016ZM198.121 55.5835L211.281 45.3016L210.05 43.7256L196.889 54.0074L198.121 55.5835ZM197.596 57.1555C197.439 56.5736 197.646 55.9545 198.121 55.5835L196.889 54.0074C195.781 54.8731 195.299 56.3177 195.665 57.6754L197.596 57.1555ZM204.129 81.4219L197.596 57.1555L195.665 57.6754L202.198 81.9418L204.129 81.4219ZM203.516 81.0691C203.783 80.9973 204.057 81.1552 204.129 81.4219L202.198 81.9418C202.413 82.7418 203.236 83.2156 204.036 83.0003L203.516 81.0691ZM203.163 81.6818C203.092 81.4152 203.25 81.1408 203.516 81.0691L204.036 83.0003C204.836 82.7849 205.31 81.9618 205.095 81.1619L203.163 81.6818ZM196.63 57.4155L203.163 81.6818L205.095 81.1619L198.561 56.8955L196.63 57.4155ZM197.505 54.7955C196.714 55.4138 196.369 56.4457 196.63 57.4155L198.561 56.8955C198.509 56.7016 198.578 56.4952 198.736 56.3715L197.505 54.7955ZM210.666 44.5136L197.505 54.7955L198.736 56.3715L211.897 46.0896L210.666 44.5136ZM210.96 42.4551C211.43 43.1088 211.301 44.0176 210.666 44.5136L211.897 46.0896C213.378 44.9324 213.681 42.8119 212.583 41.2865L210.96 42.4551ZM203.448 32.0217L210.96 42.4551L212.583 41.2865L205.071 30.8531L203.448 32.0217ZM204.629 30.4417C204.513 30.4417 204.398 30.4404 204.282 30.4377L204.236 32.4372C204.367 32.4402 204.498 32.4417 204.629 32.4417V30.4417Z" fill="black" mask="url(#path-49-inside-3_903_56178)"/>
</svg>
