<svg width="137" height="148" viewBox="0 0 137 148" fill="none" xmlns="http://www.w3.org/2000/svg">
<rect width="132" height="141" fill="transparent"/>
<path d="M132 71C132 105.242 104.242 133 70 133C35.7583 133 8 105.242 8 71C8 36.7583 35.7583 9 70 9C104.242 9 132 36.7583 132 71Z" fill="#2E2E35" stroke="url(#paint0_linear_832_54076)" stroke-width="8"/>
<path d="M30.2656 31.6721H8.76562L68.7656 135.672V99.8444L30.2656 31.6721Z" fill="url(#paint2_linear_832_54076)"/>

<path d="M64.4172 106.831L61.7553 110.067L35.8206 67.3185L39.1688 65.6693L64.4172 106.831Z" fill="#2E2E35"/>
<path d="M107.266 31.6721H128.766L68.7656 135.672L57.7656 116.5L107.266 31.6721Z" fill="url(#paint3_linear_832_54076)"/>
<path d="M131.652 28.0378C132.096 27.9611 132.568 28.0331 132.989 28.2754C133.947 28.8263 134.276 30.0491 133.725 31.0064L71.0152 139.968C70.9264 140.129 70.8149 140.279 70.6819 140.412C70.5091 140.586 70.3082 140.723 70.0909 140.822C69.8259 140.942 69.5455 141 69.2681 141.001C68.9908 141.001 68.7102 140.944 68.4448 140.825C68.2265 140.727 68.0245 140.589 67.8507 140.416C67.718 140.283 67.6065 140.134 67.5175 139.975L4.27059 31.0101C3.7161 30.0548 4.04102 28.8309 4.99633 28.2764C5.34035 28.0767 5.71921 27.9911 6.08909 28.0078C6.14689 28.0028 6.20539 28.0002 6.26449 28.0002H131.264C131.397 28.0002 131.527 28.0131 131.652 28.0378ZM128.538 32.0002H9.47029L69.2571 135.004L128.538 32.0002Z" fill="#2E2E35"/>
<path d="M93.7219 76.2761L89.41 76.3526L115.265 31.6857L119.175 31.6856L93.7219 76.2761Z" fill="#2E2E35"/>
<defs>

<linearGradient id="paint0_linear_832_54076" x1="68.5" y1="5" x2="70" y2="137" gradientUnits="userSpaceOnUse">
<stop stop-color="#E3CB79"/>
<stop offset="0.500516" stop-color="#E3CB79" stop-opacity="0.667135"/>
<stop offset="0.78125" stop-color="#E3CB79" stop-opacity="0.387722"/>
<stop offset="1" stop-color="#6C72C6" stop-opacity="0.04"/>
</linearGradient>

<linearGradient id="paint2_linear_832_54076" x1="16.2656" y1="32.0001" x2="68.7656" y2="135.672" gradientUnits="userSpaceOnUse">
<stop stop-color="#ECD86D"/>
<stop offset="0.833333" stop-color="#C0A96E"/>
<stop offset="1" stop-color="#B8A15F"/>
</linearGradient>

<linearGradient id="paint3_linear_832_54076" x1="119.266" y1="32.0001" x2="68.7656" y2="135.672" gradientUnits="userSpaceOnUse">
<stop stop-color="#ECD86D"/>
<stop offset="0.833333" stop-color="#C0A96E"/>
<stop offset="1" stop-color="#B8A15F"/>
</linearGradient>
</defs>
</svg>
