<?xml version="1.0" encoding="UTF-8"?>
<svg fill="orange" xmlns="http://www.w3.org/2000/svg" width="48px" height="48px" viewBox="0 0 48 48" version="1.1">
<path d="M 24 18.945312 C 29.222656 18.945312 33.472656 14.695312 33.472656 9.472656 C 33.472656 4.25 29.222656 0 24 0 C 18.777344 0 14.53125 4.25 14.53125 9.472656 C 14.53125 14.695312 18.777344 18.945312 24 18.945312 Z M 24 18.945312 "/>
<path d="M 36.710938 23.535156 C 36.707031 23.53125 36.699219 23.53125 36.695312 23.527344 C 35.460938 23.226562 31.6875 22.699219 31.6875 22.699219 C 31.257812 22.566406 30.804688 22.792969 30.652344 23.214844 L 24.964844 38.8125 C 24.636719 39.710938 23.367188 39.710938 23.039062 38.8125 L 17.351562 23.214844 C 17.230469 22.875 16.910156 22.660156 16.566406 22.660156 C 16.484375 22.660156 12.601562 23.207031 11.308594 23.527344 C 7.773438 24.40625 5.546875 27.878906 5.546875 31.5 L 5.546875 44.476562 C 5.546875 46.421875 7.125 48 9.066406 48 L 38.933594 48 C 40.875 48 42.453125 46.421875 42.453125 44.476562 L 42.453125 31.457031 C 42.453125 27.851562 40.136719 24.652344 36.710938 23.535156 Z M 36.710938 23.535156 "/>
<path d="M 26.144531 22.402344 C 25.917969 22.15625 25.585938 22.03125 25.25 22.03125 L 22.75 22.03125 C 22.414062 22.03125 22.082031 22.15625 21.855469 22.402344 C 21.503906 22.785156 21.453125 23.335938 21.703125 23.769531 L 23.039062 25.785156 L 22.414062 31.070312 L 23.648438 34.351562 C 23.765625 34.679688 24.234375 34.679688 24.355469 34.351562 L 25.585938 31.070312 L 24.960938 25.785156 L 26.296875 23.769531 C 26.546875 23.335938 26.496094 22.785156 26.144531 22.402344 Z M 26.144531 22.402344 "/>
</svg>
